<?xml version="1.0" encoding="UTF-8" standalone="no"?>
<!-- Generator: Adobe Illustrator 24.0.1, SVG Export Plug-In . SVG Version: 6.00 Build 0)  -->

<svg
   version="1.1"
   id="Layer_1"
   x="0px"
   y="0px"
   viewBox="0 0 845.00006 845.00002"
   xml:space="preserve"
   sodipodi:docname="vector-SVG.svg"
   width="845.00006"
   height="845"
   inkscape:export-filename="../Desktop/DS/favicon.png"
   inkscape:export-xdpi="10.906508"
   inkscape:export-ydpi="10.906508"
   inkscape:version="1.2.1 (9c6d41e, 2022-07-14)"
   xmlns:inkscape="http://www.inkscape.org/namespaces/inkscape"
   xmlns:sodipodi="http://sodipodi.sourceforge.net/DTD/sodipodi-0.dtd"
   xmlns="http://www.w3.org/2000/svg"
   xmlns:svg="http://www.w3.org/2000/svg"><defs
   id="defs63">
	
	
</defs><sodipodi:namedview
   id="namedview61"
   pagecolor="#ffffff"
   bordercolor="#000000"
   borderopacity="0.25"
   inkscape:showpageshadow="2"
   inkscape:pageopacity="0.0"
   inkscape:pagecheckerboard="0"
   inkscape:deskcolor="#d1d1d1"
   showgrid="false"
   inkscape:zoom="0.56101554"
   inkscape:cx="551.67812"
   inkscape:cy="312.82556"
   inkscape:window-width="1512"
   inkscape:window-height="945"
   inkscape:window-x="0"
   inkscape:window-y="37"
   inkscape:window-maximized="0"
   inkscape:current-layer="Layer_1" />
<g
   id="g56"
   transform="translate(-577.51347,-236.26999)">
		<g
   id="g54">
			<path
   d="m 1190.64,349.07 c 0.26,1.02 0.51,2.11 0.7,3.14 3.01,15.29 4.61,30.39 6.14,45.04 3.2,29.82 6.14,58.03 20.03,86.12 26.23,52.98 57.71,82.86 120.99,86.31 5.95,0.26 10.81,-0.7 14.91,-2.56 10.69,-4.8 15.23,-15.74 15.8,-25.72 0.06,-0.7 0.06,-1.47 0.06,-2.18 V 452.2 Z"
   id="path38" />
			<path
   d="m 634.37,674.16 c 0,16.44 6.53,29.62 17.91,36.15 9.41,5.44 20.92,5.5 30.07,0.19 11,-6.4 17.08,-19.32 17.02,-36.34 -0.06,-45.17 -0.06,-90.34 0,-135.45 v -81.13 c 0,-14.97 -0.06,-30.07 0.26,-45.17 l -67.18,38.84 c -1.41,46.96 -0.38,94.31 0.64,140.06 0.58,28.78 1.22,55.91 1.28,82.85 z"
   id="path40" />
			<path
   d="m 813.72,671.34 c -0.26,-97.25 -0.32,-194.51 -0.32,-291.76 0,-11.77 1.09,-23.35 3.2,-34.68 l -71.28,41.14 c 1.35,36.64 4.6,203.44 4.61,218.24 0.01,54.72 5.82,113.25 -25.91,147.35 -16.57,17.79 -24.57,26.68 -56.88,27.32 -8.25,0.13 -15.1,2.24 -20.6,5.63 -10.62,6.46 -16,17.72 -15.8,28.79 0.19,10.24 5.18,20.54 15.8,26.17 5.18,2.82 11.77,4.48 19.71,4.48 h 0.7 c 73.32,-2.05 147.02,-65.76 146.77,-172.68 z"
   id="path42" />
			<path
   d="m 1334.21,615.3 h -3.07 c -31.03,0 -66.81,-5.12 -100.98,-28.66 -66.54,-45.75 -78.38,-104.87 -84.2,-167.51 -0.83,-9.21 -1.66,-18.62 -2.75,-28.15 -8.13,-72.11 -53.49,-147.35 -136.79,-151.7 -3.26,-0.19 -6.46,-0.26 -9.66,-0.26 -37.37,0 -69.55,11.71 -93.41,34.1 -28.66,27 -44.72,68.84 -45.17,117.92 -1.02,100.9 1.6,185.42 43.51,277.17 90.6,198.66 303.4,230.34 422.15,231.55 h 0.45 c 14.59,0 22.2,-7.55 25.98,-13.95 6.27,-10.62 6.4,-25.15 0.19,-36.09 -3.77,-6.72 -11.52,-14.84 -26.74,-14.97 C 1211.3,833.6 1013.15,803.02 948.59,611.58 924.72,540.82 917.43,474.34 923.51,382.14 c 3.65,-54.7 37.05,-75.95 67.12,-77.61 37.3,-1.92 75.63,24.7 85.16,78.31 2.5,14.08 10.3,61.81 11.71,72.24 5.57,40.95 9.02,62.25 27.13,99.43 39.41,81.39 128.81,133.15 218.51,125.85 l 0.45,-0.06 c 24.83,-0.38 35.89,-17.79 35.7,-33.78 -0.21,-15.6 -11.15,-31.22 -35.08,-31.22 z"
   id="path44" />
			<path
   d="m 1330.55,730.22 c -128.66,-0.17 -214.38,-48.29 -260.13,-133.59 -8.89,-16.59 -25.84,-27.26 -44.66,-27.26 v 0 c -18.43,0 -30.57,19.21 -22.65,35.85 l 0.17,0.36 c 78.12,164.5 232.58,189.45 327.27,189.71 h 0.19 c 15.74,0 27.96,-6.08 34.29,-17.02 5.57,-9.6 5.63,-21.5 0.19,-31.03 -6.33,-10.95 -18.61,-16.96 -34.67,-17.02 z"
   id="path46" />
			<path
   d="m 984.87,843.26 c -35.57,-38.9 -89.32,-97.64 -139.99,-67.95 -21.95,12.86 -37.3,35.13 -52.21,56.69 -24.06,34.81 -49.01,70.89 -102.24,70.89 -5.25,0 -10.11,0.58 -14.59,1.73 l 82.92,47.86 c 34.1,-16.06 64.88,-44.79 92.07,-85.93 2.05,-3.2 3.9,-6.33 5.63,-9.34 5.18,-9.21 10.17,-17.85 19.26,-19.26 0.83,-0.13 1.6,-0.19 2.43,-0.19 6.01,0 12.41,3.33 19.96,10.3 13.69,12.54 25.85,25.34 39.16,39.6 25.78,27.7 50.8,48.37 76.4,63.21 42.87,24.83 90.34,42.8 138.65,52.98 l 96.29,-55.6 c -81.64,0 -188.56,-24.31 -254.84,-95.27 -2.76,-3 -5.77,-6.26 -8.9,-9.72 z"
   id="path48" />
			<path
   d="m 912.38,933.03 c -41.97,-20.41 -66.93,-1.02 -95.85,21.43 -7.81,6.01 -15.61,12.16 -23.99,17.53 l 57.84,33.4 c 0.58,-0.51 1.22,-1.02 1.79,-1.54 9.02,-7.61 17.91,-10.62 26.55,-10.62 19.64,0 38.01,15.55 53.75,28.92 5.82,4.86 11.26,9.47 16.7,13.44 12.99,9.41 39.86,27.58 73.77,42.93 l 71.34,-41.14 c -42.04,-10.11 -80.74,-37.43 -116.38,-62.64 -22.78,-16.12 -44.34,-31.34 -65.52,-41.71 z"
   id="path50" />
			<path
   d="m 1039.94,528.54 c -7.3,-25.68 -14.57,-51.23 -21.84,-76.82 10.09,-4.79 17.57,-12.1 22.09,-22.24 4.53,-10.17 5.05,-20.64 1.75,-31.27 -5.71,-18.37 -23.18,-30.91 -42.62,-30.66 -19.34,0.25 -36.39,13.37 -41.64,32.1 -2.61,9.31 -2.23,18.54 1.23,27.56 4.32,11.23 12.11,19.3 23.02,24.52 -7.16,25.65 -14.29,51.2 -21.43,76.82 26.55,-0.01 52.92,-0.01 79.44,-0.01 z"
   id="path52" />
		</g>
	</g>
</svg>
