<?xml version="1.0" standalone="no"?>
<!DOCTYPE svg PUBLIC "-//W3C//DTD SVG 20010904//EN"
 "http://www.w3.org/TR/2001/REC-SVG-20010904/DTD/svg10.dtd">
<svg version="1.0" xmlns="http://www.w3.org/2000/svg"
 width="700.000000pt" height="700.000000pt" viewBox="0 0 700.000000 700.000000"
 preserveAspectRatio="xMidYMid meet">
<metadata>
Created by potrace 1.14, written by Peter Selinger 2001-2017
</metadata>
<g transform="translate(0.000000,700.000000) scale(0.100000,-0.100000)"
fill="#000000" stroke="none">
<path d="M3288 6964 c-54 -7 -108 -16 -120 -20 -13 -4 -25 -7 -28 -7 -13 1
-151 -53 -205 -80 -328 -164 -536 -490 -596 -932 -19 -142 -15 -908 6 -1115 2
-19 6 -66 9 -105 4 -38 8 -86 11 -105 2 -19 7 -55 10 -80 51 -409 182 -844
361 -1199 103 -205 166 -307 293 -476 97 -129 119 -154 276 -311 346 -347 773
-603 1300 -779 152 -52 360 -109 490 -135 33 -7 65 -13 70 -15 6 -1 33 -5 60
-9 28 -4 66 -12 85 -16 33 -8 79 -15 175 -26 22 -3 50 -7 63 -9 12 -2 57 -7
100 -10 42 -4 85 -9 96 -11 36 -7 302 -18 406 -17 148 1 208 32 261 133 20 37
24 60 23 130 0 72 -4 93 -26 135 -58 112 -109 133 -334 140 -93 2 -189 7 -214
9 -25 3 -79 8 -120 11 -41 4 -82 8 -90 10 -8 2 -46 7 -85 10 -38 4 -72 8 -75
10 -3 2 -33 7 -65 10 -33 4 -62 9 -65 10 -3 2 -26 6 -50 10 -85 13 -295 64
-425 103 -340 104 -594 221 -850 393 -398 268 -705 641 -885 1074 -23 55 -45
109 -50 120 -36 84 -145 475 -164 587 -3 18 -8 44 -11 58 -5 23 -20 106 -30
170 -2 14 -7 50 -10 80 -3 30 -8 66 -10 80 -27 177 -27 933 0 1080 2 14 6 38
9 53 42 243 211 438 426 493 210 54 442 -17 600 -183 105 -110 187 -275 214
-428 3 -16 7 -40 10 -52 2 -11 8 -43 12 -70 3 -26 8 -57 10 -68 8 -40 40 -238
49 -300 3 -22 10 -65 15 -95 5 -30 12 -77 15 -104 3 -27 7 -59 10 -70 2 -12 7
-37 10 -56 6 -43 22 -129 34 -190 32 -151 145 -427 236 -576 21 -34 67 -105
77 -119 4 -5 41 -50 81 -100 173 -211 393 -384 639 -503 48 -23 90 -42 93 -42
3 0 26 -9 49 -20 80 -36 301 -93 411 -106 22 -3 69 -8 105 -12 151 -17 356 -1
427 34 195 95 200 382 9 473 -52 24 -94 29 -267 36 -338 12 -604 113 -865 326
-161 131 -309 321 -393 502 -23 49 -41 92 -41 98 0 5 -4 17 -9 27 -9 16 -36
96 -46 138 -17 65 -54 258 -60 304 -4 30 -9 69 -11 85 -10 82 -15 135 -29 300
-3 39 -8 81 -11 95 -2 14 -6 36 -9 50 -3 13 -7 40 -10 60 -8 57 -12 70 -40
168 -126 437 -403 764 -755 893 -165 60 -380 79 -582 53z"/>
<path d="M1930 6071 c-25 -15 -68 -41 -97 -57 -28 -16 -130 -74 -225 -129 -95
-55 -182 -105 -193 -110 -19 -10 -20 -20 -18 -180 1 -94 4 -271 7 -395 3 -124
8 -358 12 -520 10 -411 11 -1341 1 -1423 -30 -273 -106 -439 -278 -603 -111
-105 -190 -137 -373 -149 -125 -8 -180 -28 -241 -89 -61 -61 -89 -135 -81
-212 6 -61 12 -78 47 -129 47 -70 165 -117 271 -109 314 26 564 141 784 360
182 183 308 415 370 687 36 158 37 199 39 1592 1 754 5 1379 8 1390 8 33 19
105 15 104 -1 0 -23 -13 -48 -28z"/>
<path d="M5085 6048 c7 -21 30 -189 40 -288 3 -36 8 -76 10 -90 2 -14 7 -50
10 -80 18 -162 30 -242 55 -345 46 -197 143 -400 279 -585 191 -261 450 -398
788 -417 126 -7 175 8 228 70 60 70 63 90 63 514 1 286 -2 384 -11 391 -7 5
-32 21 -57 34 -25 14 -74 43 -110 63 -36 21 -83 48 -105 60 -22 13 -182 105
-355 205 -173 101 -335 194 -360 208 -25 14 -78 44 -117 68 -40 24 -76 44 -80
44 -3 0 -14 6 -22 14 -9 8 -40 27 -69 42 -56 31 -62 34 -134 77 -52 30 -59 32
-53 15z"/>
<path d="M3383 5892 c-173 -62 -272 -229 -240 -407 18 -102 102 -221 182 -257
16 -7 24 -17 20 -27 -2 -9 -29 -106 -59 -216 -31 -110 -68 -246 -84 -302 l-29
-103 81 0 c239 -2 570 1 573 4 2 1 -10 47 -26 102 -16 54 -36 124 -44 154 -9
30 -36 127 -61 214 -25 88 -45 160 -43 161 1 1 18 11 37 23 106 63 183 208
174 328 -9 136 -92 257 -214 312 -74 35 -192 41 -267 14z"/>
<path d="M800 5419 c-113 -66 -238 -138 -278 -161 l-73 -43 6 -615 c3 -338 7
-680 9 -760 2 -80 5 -233 6 -340 2 -135 7 -210 17 -245 65 -220 306 -288 446
-124 76 88 72 26 75 1049 1 503 1 1014 0 1136 l-3 221 -205 -118z"/>
<path d="M3647 4230 c-81 -25 -143 -116 -139 -204 3 -88 154 -361 326 -591
124 -164 330 -371 496 -497 220 -166 509 -313 805 -408 96 -30 302 -83 375
-95 19 -3 60 -10 90 -15 59 -11 92 -15 185 -25 33 -4 76 -8 95 -11 19 -2 117
-7 216 -10 198 -7 258 0 331 42 159 91 174 315 29 425 -76 57 -103 62 -401 74
-137 6 -169 8 -270 20 -44 6 -156 24 -250 40 -108 20 -416 115 -439 136 -6 5
-16 9 -23 9 -14 0 -133 57 -228 110 -312 173 -602 474 -770 800 -30 57 -120
139 -190 172 -70 32 -183 46 -238 28z"/>
<path d="M2305 2575 c-150 -53 -290 -183 -470 -438 -230 -325 -333 -443 -452
-523 -152 -101 -267 -132 -537 -143 -19 -1 -26 -5 -20 -10 8 -8 97 -61 222
-133 71 -40 173 -98 308 -176 78 -45 146 -82 151 -82 19 0 199 113 276 174
144 113 253 227 382 396 65 86 175 254 175 267 0 3 14 22 30 43 62 78 148 85
239 19 43 -30 211 -196 411 -404 156 -163 316 -302 460 -401 202 -139 624
-338 880 -414 41 -13 95 -29 120 -37 61 -20 229 -61 261 -65 20 -2 131 57 418
222 215 124 391 227 391 230 0 3 -33 5 -73 6 -75 0 -273 12 -317 19 -14 2 -47
6 -75 10 -643 83 -1216 338 -1584 705 -42 42 -100 103 -130 135 -84 92 -232
245 -292 300 -302 280 -553 377 -774 300z"/>
<path d="M2381 1285 c-93 -22 -210 -91 -407 -238 l-190 -143 180 -105 c265
-153 290 -168 297 -169 3 0 15 9 27 20 39 37 120 71 181 77 90 8 179 -23 299
-104 53 -36 99 -68 102 -72 14 -17 183 -154 245 -198 124 -87 282 -182 430
-258 l144 -74 203 118 c112 64 242 139 290 167 48 27 87 51 88 54 0 3 -46 20
-103 38 -225 74 -413 181 -832 472 -402 279 -512 346 -655 396 -88 30 -218 39
-299 19z"/>
</g>
</svg>
